<svg xmlns="http://www.w3.org/2000/svg" viewBox="0 0 512 512">
  <defs>
    <linearGradient id="g" x1="0" y1="0" x2="0" y2="1">
      <stop offset="0" stop-color="#34d399"/>
      <stop offset="1" stop-color="#059669"/>
    </linearGradient>
  </defs>
  <rect width="512" height="512" rx="112" fill="url(#g)"/>
  <path fill="#fff" d="M256 120c-79 0-144 53-144 119 0 38 22 71 56 93-4 19-17 41-17 41-1 3 1 6 4 6 1 0 2 0 3-1 3-1 41-19 64-34 11 2 22 3 34 3 79 0 144-53 144-118S335 120 256 120z"/>
</svg>
